<svg xmlns="http://www.w3.org/2000/svg" width="30.666" height="30.666" viewBox="0 0 30.666 30.666">
  <g id="appointment" transform="translate(0.5 0.5)">
    <g id="Group_2484" data-name="Group 2484">
      <g id="Group_2483" data-name="Group 2483">
        <path id="Path_2064" data-name="Path 2064" d="M26.769,2.549H24.007V1.738a1.738,1.738,0,0,0-3.476,0v.811H10.8V1.738a1.738,1.738,0,0,0-3.476,0v.833a.578.578,0,0,0-.154-.021H4.857a2.9,2.9,0,0,0-2.9,2.9v9.869a.579.579,0,0,0,1.159,0v-6.8H24.007a.579.579,0,1,0,0-1.159H3.119V5.446A1.74,1.74,0,0,1,4.857,3.708H7.165a.581.581,0,0,0,.154-.021v.746a1.738,1.738,0,0,0,3.476,0V3.708H20.53v.724a1.738,1.738,0,0,0,3.476,0V3.708h2.762a1.74,1.74,0,0,1,1.738,1.738V27.464a1.043,1.043,0,0,1-2.087,0v-1.5a.579.579,0,0,0-.579-.579H19.1a.579.579,0,1,0,0,1.159h6.16v.919a2.189,2.189,0,0,0,.263,1.043H2.2a1.044,1.044,0,0,1-1.043-1.043v-.92H14.127a.579.579,0,1,0,0-1.159H8.338a4.751,4.751,0,1,0-6.192,0H.579A.579.579,0,0,0,0,25.965v1.5a2.2,2.2,0,0,0,2.2,2.2H27.464a2.2,2.2,0,0,0,2.2-2.2V5.446A2.9,2.9,0,0,0,26.769,2.549ZM9.638,4.432a.579.579,0,0,1-1.159,0V1.738a.579.579,0,0,1,1.159,0Zm13.211,0a.579.579,0,1,1-1.159,0V1.738a.579.579,0,1,1,1.159,0ZM1.65,21.786a3.592,3.592,0,1,1,3.592,3.592A3.6,3.6,0,0,1,1.65,21.786Z" stroke="#000" stroke-width="1"/>
      </g>
    </g>
    <g id="Group_2486" data-name="Group 2486" transform="translate(26.145 7.359)">
      <g id="Group_2485" data-name="Group 2485">
        <path id="Path_2065" data-name="Path 2065" d="M452.229,127.17a.579.579,0,1,0,.17.41A.584.584,0,0,0,452.229,127.17Z" transform="translate(-451.24 -127)" stroke="#000" stroke-width="1"/>
      </g>
    </g>
    <g id="Group_2488" data-name="Group 2488" transform="translate(16.315 25.386)">
      <g id="Group_2487" data-name="Group 2487">
        <path id="Path_2066" data-name="Path 2066" d="M282.569,438.3a.58.58,0,1,0,.17.41A.583.583,0,0,0,282.569,438.3Z" transform="translate(-281.58 -438.13)" stroke="#000" stroke-width="1"/>
      </g>
    </g>
    <g id="Group_2490" data-name="Group 2490" transform="translate(10.907 17.614)">
      <g id="Group_2489" data-name="Group 2489">
        <path id="Path_2067" data-name="Path 2067" d="M190.447,304a2.2,2.2,0,1,0,2.2,2.2A2.2,2.2,0,0,0,190.447,304Zm0,3.245a1.043,1.043,0,1,1,1.043-1.043A1.044,1.044,0,0,1,190.447,307.245Z" transform="translate(-188.245 -304)" stroke="#000" stroke-width="1"/>
      </g>
    </g>
    <g id="Group_2492" data-name="Group 2492" transform="translate(16.315 17.614)">
      <g id="Group_2491" data-name="Group 2491">
        <path id="Path_2068" data-name="Path 2068" d="M283.78,304a2.2,2.2,0,1,0,2.2,2.2A2.2,2.2,0,0,0,283.78,304Zm0,3.245a1.043,1.043,0,1,1,1.043-1.043A1.044,1.044,0,0,1,283.78,307.245Z" transform="translate(-281.578 -304)" stroke="#000" stroke-width="1"/>
      </g>
    </g>
    <g id="Group_2494" data-name="Group 2494" transform="translate(21.723 17.614)">
      <g id="Group_2493" data-name="Group 2493">
        <path id="Path_2069" data-name="Path 2069" d="M377.114,304a2.2,2.2,0,1,0,2.2,2.2A2.2,2.2,0,0,0,377.114,304Zm0,3.245a1.043,1.043,0,1,1,1.043-1.043A1.044,1.044,0,0,1,377.114,307.245Z" transform="translate(-374.912 -304)" stroke="#000" stroke-width="1"/>
      </g>
    </g>
    <g id="Group_2496" data-name="Group 2496" transform="translate(5.499 11.588)">
      <g id="Group_2495" data-name="Group 2495">
        <path id="Path_2070" data-name="Path 2070" d="M97.114,200a2.2,2.2,0,1,0,2.2,2.2A2.2,2.2,0,0,0,97.114,200Zm0,3.245a1.043,1.043,0,1,1,1.043-1.043A1.044,1.044,0,0,1,97.114,203.245Z" transform="translate(-94.912 -200)" stroke="#000" stroke-width="1"/>
      </g>
    </g>
    <g id="Group_2498" data-name="Group 2498" transform="translate(16.315 11.588)">
      <g id="Group_2497" data-name="Group 2497">
        <path id="Path_2071" data-name="Path 2071" d="M283.78,200a2.2,2.2,0,1,0,2.2,2.2A2.2,2.2,0,0,0,283.78,200Zm0,3.245a1.043,1.043,0,1,1,1.043-1.043A1.044,1.044,0,0,1,283.78,203.245Z" transform="translate(-281.578 -200)" stroke="#000" stroke-width="1"/>
      </g>
    </g>
    <g id="Group_2500" data-name="Group 2500" transform="translate(21.723 11.588)">
      <g id="Group_2499" data-name="Group 2499">
        <path id="Path_2072" data-name="Path 2072" d="M377.114,200a2.2,2.2,0,1,0,2.2,2.2A2.2,2.2,0,0,0,377.114,200Zm0,3.245a1.043,1.043,0,1,1,1.043-1.043A1.044,1.044,0,0,1,377.114,203.245Z" transform="translate(-374.912 -200)" stroke="#000" stroke-width="1"/>
      </g>
    </g>
    <g id="Group_2502" data-name="Group 2502" transform="translate(10.907 11.588)">
      <g id="Group_2501" data-name="Group 2501">
        <path id="Path_2073" data-name="Path 2073" d="M190.447,200a2.2,2.2,0,1,0,2.2,2.2A2.2,2.2,0,0,0,190.447,200Zm0,3.245a1.043,1.043,0,1,1,1.043-1.043A1.044,1.044,0,0,1,190.447,203.245Z" transform="translate(-188.245 -200)" stroke="#000" stroke-width="1"/>
      </g>
    </g>
    <g id="Group_2504" data-name="Group 2504" transform="translate(2.966 20.204)">
      <g id="Group_2503" data-name="Group 2503">
        <path id="Path_2074" data-name="Path 2074" d="M55.535,348.87a.58.58,0,0,0-.819,0l-1.887,1.887-.645-.645a.579.579,0,0,0-.819.819l1.055,1.054a.579.579,0,0,0,.819,0l2.3-2.3A.579.579,0,0,0,55.535,348.87Z" transform="translate(-51.194 -348.7)" stroke="#000" stroke-width="1"/>
      </g>
    </g>
  </g>
</svg>
