<svg xmlns="http://www.w3.org/2000/svg" width="31.733" height="31.598" viewBox="0 0 31.733 31.598">
  <g id="credit-card" transform="translate(0.5 0.511)">
    <g id="Group_2506" data-name="Group 2506">
      <g id="Group_2505" data-name="Group 2505">
        <path id="Path_2076" data-name="Path 2076" d="M30.4,11.226,26.984,2.333A3.263,3.263,0,0,0,22.766.462l-.073.029L5.6,7.577a3.247,3.247,0,0,0-1.8,4.155l.47,1.255H3.186A3.19,3.19,0,0,0,0,16.173v11.47A3.19,3.19,0,0,0,3.186,30.83H24.852a3.19,3.19,0,0,0,3.186-3.186V16.173a3.132,3.132,0,0,0-.046-.516l.592-.24A3.275,3.275,0,0,0,30.4,11.226ZM3.186,14.007H24.852a2.164,2.164,0,0,1,2.154,2.039H1.032A2.163,2.163,0,0,1,3.186,14.007ZM8.31,10.936l3.407-1.7.7,1.752-3.407,1.7ZM27.019,27.644a2.169,2.169,0,0,1-2.167,2.167H3.186A2.169,2.169,0,0,1,1.02,27.644v-6.5h26Zm0-7.519h-26V17.065h26ZM28.2,14.476l-.533.216a3.188,3.188,0,0,0-2.817-1.7H10.691l2.6-1.3a.51.51,0,0,0,.246-.645l-1.081-2.7a.51.51,0,0,0-.663-.284l-.039.017L7.434,10.234a.51.51,0,0,0-.245.645l.843,2.107H5.353l-.6-1.61a2.232,2.232,0,0,1,1.24-2.855L23.083,1.436A2.24,2.24,0,0,1,26.01,2.647l.021.054,3.421,8.894A2.251,2.251,0,0,1,28.2,14.476Z" transform="translate(0 -0.243)" fill="#247b7b" stroke="#247b7b" stroke-width="1"/>
        <path id="Path_2077" data-name="Path 2077" d="M265.4,357.933a3.059,3.059,0,0,0,3.073,0,3.059,3.059,0,1,0,0-5.29,3.059,3.059,0,1,0-3.073,5.29Zm3.925-4.56a2.039,2.039,0,1,1,0,3.83A3.047,3.047,0,0,0,269.327,353.374Zm-.852.58a2,2,0,0,1,0,2.669A2,2,0,0,1,268.475,353.954Zm-1.529-.7a2.019,2.019,0,0,1,.677.124,3.047,3.047,0,0,0,0,3.83,2.019,2.019,0,0,1-.677.124,2.039,2.039,0,1,1,0-4.078Z" transform="translate(-247.064 -329.799)" fill="#247b7b" stroke="#247b7b" stroke-width="1"/>
        <rect id="Rectangle_1570" data-name="Rectangle 1570" width="1.02" height="5.322" transform="translate(21.918 11.453) rotate(-113.966)" fill="#247b7b" stroke="#247b7b" stroke-width="1"/>
        <rect id="Rectangle_1571" data-name="Rectangle 1571" width="7.737" height="1.019" transform="matrix(0.908, -0.419, 0.419, 0.908, 18.257, 9.443)" fill="#247b7b" stroke="#247b7b" stroke-width="1"/>
      </g>
    </g>
  </g>
</svg>
