<svg xmlns="http://www.w3.org/2000/svg" width="28.857" height="32.011" viewBox="0 0 28.857 32.011">
  <g id="calendar" transform="translate(-25.377 0.25)">
    <path id="Path_2137" data-name="Path 2137" d="M48.115,15.476h2.2a.9.9,0,0,0,.9-.9v-2.2a.9.9,0,0,0-.9-.9h-2.2a.9.9,0,0,0-.9.9v2.2A.9.9,0,0,0,48.115,15.476Zm.022-3.077h2.154v2.154H48.137Zm-.022,8.924h2.2a.9.9,0,0,0,.9-.9v-2.2a.9.9,0,0,0-.9-.9h-2.2a.9.9,0,0,0-.9.9v2.2A.9.9,0,0,0,48.115,21.323Zm.022-3.077h2.154V20.4H48.137Zm-6.294-2.77h2.2a.9.9,0,0,0,.9-.9v-2.2a.9.9,0,0,0-.9-.9h-2.2a.9.9,0,0,0-.9.9v2.2A.9.9,0,0,0,41.843,15.476Zm.022-3.077h2.154v2.154H41.865ZM31.5,22.895H29.3a.9.9,0,0,0-.9.9v2.2a.9.9,0,0,0,.9.9h2.2a.9.9,0,0,0,.9-.9V23.8A.9.9,0,0,0,31.5,22.895Zm-.022,3.077H29.32V23.818h2.154Zm.022-14.5H29.3a.9.9,0,0,0-.9.9v2.2a.9.9,0,0,0,.9.9h2.2a.9.9,0,0,0,.9-.9v-2.2A.9.9,0,0,0,31.5,11.475Zm-.022,3.077H29.32V12.4h2.154Zm10.369,6.633h2.2a.9.9,0,0,0,.9-.9v-2.2a.9.9,0,0,0-.9-.9h-2.2a.9.9,0,0,0-.9.9v2.2A.9.9,0,0,0,41.843,21.186Zm.022-3.077h2.154v2.154H41.865Zm9.808-16H49.7V1.4A1.405,1.405,0,0,0,48.3,0h-.212a1.405,1.405,0,0,0-1.4,1.4v.706H32.931V1.4a1.405,1.405,0,0,0-1.4-1.4h-.212a1.405,1.405,0,0,0-1.4,1.4v.706H27.938A2.314,2.314,0,0,0,25.627,4.42V29.2a2.311,2.311,0,0,0,2.308,2.308H51.676A2.311,2.311,0,0,0,53.984,29.2V4.42a2.314,2.314,0,0,0-2.311-2.311ZM47.6,1.4a.481.481,0,0,1,.48-.48H48.3a.481.481,0,0,1,.48.48v.706H47.6Zm-16.768,0a.481.481,0,0,1,.48-.48h.212a.481.481,0,0,1,.48.48v.706H30.835V1.4ZM53.061,29.2a1.386,1.386,0,0,1-1.385,1.385H27.935A1.386,1.386,0,0,1,26.55,29.2v0a2.3,2.3,0,0,0,1.388.464H46.653a2.3,2.3,0,0,0,1.634-.677l4.774-4.774Zm-5.245-1.05a1.974,1.974,0,0,0,.056-.465V24.607a1.055,1.055,0,0,1,1.054-1.054h3.081a1.974,1.974,0,0,0,.465-.056ZM53.061,8.706H33.392a.462.462,0,1,0,0,.923H53.061V21.576a1.055,1.055,0,0,1-1.054,1.054H48.926a1.979,1.979,0,0,0-1.977,1.977v3.081A1.055,1.055,0,0,1,45.9,28.742H27.938a1.389,1.389,0,0,1-1.388-1.388V9.629h5a.462.462,0,0,0,0-.923h-5V4.42a1.389,1.389,0,0,1,1.388-1.388h1.974V4.39a1.405,1.405,0,0,0,1.4,1.4.462.462,0,1,0,0-.923.481.481,0,0,1-.48-.48V3.033H46.68V4.39a1.405,1.405,0,0,0,1.4,1.4.462.462,0,1,0,0-.923.481.481,0,0,1-.48-.48V3.033h4.07A1.389,1.389,0,0,1,53.061,4.42ZM31.5,17.185H29.3a.9.9,0,0,0-.9.9v2.2a.9.9,0,0,0,.9.9h2.2a.9.9,0,0,0,.9-.9v-2.2A.9.9,0,0,0,31.5,17.185Zm-.022,3.077H29.32V18.108h2.154Zm4.1-4.787h2.2a.9.9,0,0,0,.9-.9v-2.2a.9.9,0,0,0-.9-.9h-2.2a.9.9,0,0,0-.9.9v2.2A.9.9,0,0,0,35.57,15.476Zm.022-3.077h2.154v2.154H35.592Zm6.272,13.574a.462.462,0,0,0-.923.022.9.9,0,0,0,.9.9h2.2a.9.9,0,0,0,.9-.9V23.8a.9.9,0,0,0-.9-.9h-2.2a.9.9,0,0,0-.9.9v.634a.462.462,0,0,0,.923,0v-.612h2.154v2.154ZM35.57,21.186h2.2a.9.9,0,0,0,.9-.9v-2.2a.9.9,0,0,0-.9-.9h-2.2a.9.9,0,0,0-.9.9v2.2A.9.9,0,0,0,35.57,21.186Zm.022-3.077h2.154v2.154H35.592ZM35.57,26.9h2.2a.9.9,0,0,0,.9-.9V23.8a.9.9,0,0,0-.9-.9h-2.2a.9.9,0,0,0-.9.9v2.2A.9.9,0,0,0,35.57,26.9Zm.022-3.077h2.154v2.154H35.592Z" transform="translate(0 0)" fill="#f6f6f6" stroke="#f5f5f5" stroke-width="0.5"/>
  </g>
</svg>
