<svg xmlns="http://www.w3.org/2000/svg" width="43.782" height="45.974" viewBox="0 0 43.782 45.974"><g transform="translate(0.578)"><path d="M102.4,263.331h15.161a.978.978,0,1,0,0-1.956H102.4a.978.978,0,1,0,0,1.956Zm0,0" transform="translate(-94.022 -240.922)" fill="#247b7b"/><path d="M111.481,342.625H102.4a.978.978,0,1,0,0,1.956h9.077a.978.978,0,0,0,0-1.956Zm0,0" transform="translate(-94.022 -315.814)" fill="#247b7b"/><path d="M34.44,24.639V7.737a4.892,4.892,0,0,0-4.891-4.891h-4.01V.978a.978.978,0,1,0-1.956,0V2.846h-13.3V.978a.978.978,0,0,0-1.956,0V2.846H4.313A4.893,4.893,0,0,0-.578,7.737v26.5a4.893,4.893,0,0,0,4.891,4.891H22.418A10.761,10.761,0,1,0,34.44,24.639ZM4.323,4.8h4.01V6.671a.978.978,0,0,0,1.956,0V4.8h13.3V6.671a.978.978,0,0,0,1.956,0V4.8h4.01a2.943,2.943,0,0,1,2.934,2.934V10.1H1.388V7.737A2.937,2.937,0,0,1,4.323,4.8Zm0,32.367a2.943,2.943,0,0,1-2.934-2.934V12.051H32.483v12.4h-.029A10.776,10.776,0,0,0,21.87,37.17Zm28.131,6.847a8.8,8.8,0,1,1,8.8-8.8A8.8,8.8,0,0,1,32.454,44.017Zm0,0" fill="#247b7b"/><path d="M356,401.911l-5.81,5.546-3-3.013a.975.975,0,1,0-1.379,1.379l3.687,3.688a.962.962,0,0,0,.695.284.946.946,0,0,0,.675-.274l6.495-6.211a.973.973,0,0,0,.029-1.379A1,1,0,0,0,356,401.911Zm0,0" transform="translate(-319.018 -370.209)" fill="#247b7b"/></g></svg>