<svg id="remove" xmlns="http://www.w3.org/2000/svg" width="30.283" height="30.283" viewBox="0 0 30.283 30.283">
  <path id="Path_2138" data-name="Path 2138" d="M15.142,0A15.142,15.142,0,1,0,30.283,15.142,15.141,15.141,0,0,0,15.142,0Zm0,28.39A13.249,13.249,0,1,1,28.39,15.142,13.249,13.249,0,0,1,15.142,28.39Zm0,0" fill="#f6f6f6"/>
  <path id="Path_2139" data-name="Path 2139" d="M141.678,126.956a.946.946,0,0,0-1.338,0l-6.023,6.023-6.023-6.023a.946.946,0,0,0-1.361,1.315l.023.023,6.023,6.023-6.023,6.023a.946.946,0,1,0,1.315,1.361l.023-.023,6.023-6.023,6.023,6.023a.946.946,0,0,0,1.338-1.338l-6.022-6.023,6.023-6.023A.946.946,0,0,0,141.678,126.956Zm0,0" transform="translate(-119.175 -119.175)" fill="#f6f6f6"/>
</svg>
