<svg id="money" xmlns="http://www.w3.org/2000/svg" width="19.41" height="17.33" viewBox="0 0 19.41 17.33">
  <path id="Path_2236" data-name="Path 2236" d="M230.337,59.736h0l2.845-.979,4.966.979V61.9l-8.135,1.342L228.563,61.9A8.71,8.71,0,0,1,230.337,59.736Z" transform="translate(-227.403 -57.569)" fill="#e7a52e"/>
  <g id="Group_2608" data-name="Group 2608" transform="translate(0.273 9.575)">
    <path id="Path_2237" data-name="Path 2237" d="M228.563,409.493l3.713-.706,4.1.706v2.166h-2.08a8.631,8.631,0,0,1-5.685-2.126" transform="translate(-225.902 -403.904)" fill="#e7a52e"/>
    <path id="Path_2238" data-name="Path 2238" d="M239.035,283.419l-5.859.848-3.727-.848a8.612,8.612,0,0,1-.887-2.166L232.921,280l6.114,1.257Z" transform="translate(-228.563 -279.996)" fill="#e7a52e"/>
  </g>
  <path id="Path_2239" data-name="Path 2239" d="M228.836,158.52l2.661-1.59,7.811,1.59v2.166l-8.529,1.54-2.217-1.54A8.676,8.676,0,0,1,228.836,158.52Z" transform="translate(-228.563 -152.021)" fill="#e7a52e"/>
  <path id="Path_2240" data-name="Path 2240" d="M228.564,36.1a8.665,8.665,0,0,1,8.665-8.665q.442,0,.872.044V44.767h-.872A8.665,8.665,0,0,1,228.564,36.1Z" transform="translate(-227.356 -27.437)" fill="#e28424"/>
  <g id="Group_2609" data-name="Group 2609" transform="translate(0 0)">
    <path id="Path_2241" data-name="Path 2241" d="M228.563,29.6a8.631,8.631,0,0,1,5.731-2.166h2.08V29.6Z" transform="translate(-225.629 -27.437)" fill="#c85929"/>
    <path id="Path_2242" data-name="Path 2242" d="M239.035,143.884H228.563a8.612,8.612,0,0,1,.887-2.166h9.586Z" transform="translate(-228.29 -137.386)" fill="#c85929"/>
    <path id="Path_2243" data-name="Path 2243" d="M239.308,258.166H228.836a8.68,8.68,0,0,1-.273-2.166h10.745Z" transform="translate(-228.563 -247.335)" fill="#c85929"/>
    <path id="Path_2244" data-name="Path 2244" d="M238.149,372.447h-7.811a8.7,8.7,0,0,1-1.775-2.166h9.586Z" transform="translate(-227.404 -357.284)" fill="#c85929"/>
  </g>
  <path id="Path_2245" data-name="Path 2245" d="M228.563,370.282h8.378v2.166h-6.6A8.7,8.7,0,0,1,228.563,370.282Z" transform="translate(-226.195 -357.285)" fill="#b94029"/>
  <path id="Path_2246" data-name="Path 2246" d="M228.564,256H238.1v2.166h-9.264A8.681,8.681,0,0,1,228.564,256Z" transform="translate(-227.356 -247.335)" fill="#b94029"/>
  <path id="Path_2247" data-name="Path 2247" d="M229.45,141.718h8.378v2.166h-9.264A8.612,8.612,0,0,1,229.45,141.718Z" transform="translate(-227.082 -137.386)" fill="#b94029"/>
  <path id="Path_2248" data-name="Path 2248" d="M234.294,27.437q.442,0,.872.044V29.6h-6.6A8.631,8.631,0,0,1,234.294,27.437Z" transform="translate(-224.42 -27.437)" fill="#b94029"/>
  <ellipse id="Ellipse_287" data-name="Ellipse 287" cx="8.665" cy="8.665" rx="8.665" ry="8.665" transform="translate(2.08 0)" fill="#f6e266"/>
  <path id="Path_2249" data-name="Path 2249" d="M80.66,48.165a8.691,8.691,0,0,1-1.426,1.029L76.857,33.24a8.6,8.6,0,0,1,1.664.567Z" transform="translate(-64.163 -33.02)" fill="#fbf4af"/>
  <path id="Path_2250" data-name="Path 2250" d="M224.848,27.437q.236,0,.469.013a8.665,8.665,0,0,0,0,17.3q-.233.012-.469.013a8.665,8.665,0,1,1,0-17.33Z" transform="translate(-214.103 -27.437)" fill="#eab14d"/>
  <ellipse id="Ellipse_288" data-name="Ellipse 288" cx="6.978" cy="6.978" rx="6.978" ry="6.978" transform="translate(3.767 1.686)" fill="#e7a52e"/>
  <path id="Path_2251" data-name="Path 2251" d="M221.854,71.923q.262,0,.519.019a6.979,6.979,0,0,0,0,13.918q-.257.019-.519.019a6.978,6.978,0,1,1,0-13.957Z" transform="translate(-211.109 -70.237)" fill="#e28424"/>
  <path id="Path_2252" data-name="Path 2252" d="M88.353,92.434a7.019,7.019,0,0,1-1.385,1.308l-1.832-12.3a6.952,6.952,0,0,1,1.706.848Z" transform="translate(-72.17 -79.396)" fill="#eab14d"/>
  <path id="Path_2253" data-name="Path 2253" d="M121.824,151.66l-1.317,2.024a.254.254,0,0,1-.147.107l-2.332.627a.254.254,0,0,0-.132.405l1.518,1.878a.254.254,0,0,1,.056.173l-.124,2.412a.254.254,0,0,0,.345.25l2.255-.863a.254.254,0,0,1,.182,0l2.255.863a.254.254,0,0,0,.345-.25l-.124-2.412a.254.254,0,0,1,.056-.173l1.518-1.878a.254.254,0,0,0-.132-.405l-2.332-.627a.254.254,0,0,1-.147-.107l-1.317-2.024A.254.254,0,0,0,121.824,151.66Z" transform="translate(-111.292 -146.84)" fill="#c85929"/>
  <path id="Path_2254" data-name="Path 2254" d="M236.977,204.388l2.332-.627a.255.255,0,0,0,.147-.107l.111-.17a12.667,12.667,0,0,0,1.108,5.245l-2.034.778a.254.254,0,0,1-.345-.25l.124-2.412a.254.254,0,0,0-.056-.173l-1.518-1.878A.254.254,0,0,1,236.977,204.388Z" transform="translate(-230.241 -196.809)" fill="#b94029"/>
</svg>
