<svg xmlns="http://www.w3.org/2000/svg" width="34.516" height="35.121" viewBox="0 0 34.516 35.121"><path d="M15.941,0a13.589,13.589,0,0,1,1.826.127A13.555,13.555,0,0,1,19.574,0a14.618,14.618,0,0,1,11.3,5.61.577.577,0,0,1,.072.086,17.828,17.828,0,0,1,2.3,3.71.683.683,0,0,1,.041.091,18.9,18.9,0,0,1,1.066,2.965.607.607,0,0,1,.047.188,19.747,19.747,0,0,1,.619,4.912,19.473,19.473,0,0,1-1.467,7.461.584.584,0,0,1-.028.07,18.041,18.041,0,0,1-2.1,3.721.592.592,0,0,1-.065.085,16.506,16.506,0,0,1-2.87,2.993.587.587,0,0,1-.1.084,14.108,14.108,0,0,1-8.8,3.147,13.555,13.555,0,0,1-1.808-.127,13.589,13.589,0,0,1-1.826.127C7.427,35.121.5,27.244.5,17.561S7.427,0,15.941,0Zm6.394,1.583q.3.156.594.326c.11.064.22.125.328.191.168.1.332.212.5.322h1.166a12.738,12.738,0,0,0-2.773-.943C22.21,1.511,22.271,1.55,22.336,1.583Zm6.1,26.272h2.171a16.736,16.736,0,0,0,1.42-2.422H29.737c-.1.214-.193.427-.295.636-.044.09-.09.179-.136.269q-.186.365-.386.718c-.05.088-.1.177-.149.264C28.664,27.5,28.552,27.678,28.439,27.855ZM32.31,10.294H29.993q.159.4.3.8c.026.075.053.15.078.225.087.26.168.523.245.788h2.365A17.5,17.5,0,0,0,32.31,10.294ZM33.8,17.561c0-.408-.022-.81-.047-1.211H31.343c0,.01,0,.019,0,.029.022.391.038.784.038,1.182,0,.2-.007.4-.013.606h2.412C33.788,17.964,33.8,17.765,33.8,17.561Zm-2.5,1.817c-.023.255-.053.508-.085.76,0,.018,0,.037-.006.056-.045.337-.1.67-.16,1h2.388c.118-.595.211-1.2.271-1.817Zm-.375-6.055c.016.071.029.144.044.216s.033.159.049.239c.074.38.139.763.191,1.152,0,.018,0,.037.006.056.007.051.012.1.018.154h2.4a18.29,18.29,0,0,0-.32-1.817ZM30.78,22.4c-.019.074-.036.149-.056.222-.007.027-.013.055-.021.081-.1.369-.212.731-.332,1.09-.025.076-.052.15-.078.225s-.045.133-.068.2h2.333a17.749,17.749,0,0,0,.6-1.817ZM28.771,7.8c.051.087.1.176.149.264q.2.353.386.718c.045.09.092.178.136.269l.015.03h2.27a16.479,16.479,0,0,0-1.572-2.422H28.035c.074.106.148.211.22.319Q28.523,7.382,28.771,7.8ZM27,3.633H25.331c.15.131.3.263.446.4.122.115.24.234.358.354s.239.243.355.367.224.238.333.361.19.222.283.334h2A14.647,14.647,0,0,0,27,3.633Zm2.669,25.433H27.594c-.068.09-.136.179-.206.267q-.274.345-.564.673c-.108.123-.221.242-.333.361s-.236.247-.356.368c-.048.048-.094.1-.144.148h1.821A15,15,0,0,0,29.672,29.066Zm-7.526,4.577a12.932,12.932,0,0,0,3.918-1.549H24.6c-.078.06-.157.116-.236.174-.125.093-.251.187-.378.276q-.357.249-.727.477c-.108.066-.218.128-.328.191q-.293.17-.594.326C22.271,33.572,22.21,33.61,22.146,33.642Zm-6.2.268a12.47,12.47,0,0,0,1.425-.082l.234-.033.1-.014q.314-.045.623-.1l.051-.011q.3-.059.6-.133l.089-.024c.183-.047.366-.1.547-.152.055-.017.11-.036.165-.054.154-.049.308-.1.46-.154.124-.045.245-.094.367-.143.083-.033.167-.064.249-.1a15.1,15.1,0,0,0,7.6-7.549c.015-.031.029-.065.044-.1q.132-.282.255-.571c.033-.077.063-.155.094-.233.061-.15.122-.3.179-.454.037-.1.071-.2.107-.3.048-.134.1-.269.139-.406.036-.111.071-.224.105-.336q.059-.192.114-.385c.034-.118.066-.238.1-.357s.064-.254.094-.382.057-.245.084-.368.053-.259.078-.389.047-.248.069-.374.043-.268.063-.4.037-.244.053-.368c.019-.145.033-.292.048-.439.012-.114.025-.228.035-.343.015-.168.024-.338.034-.508.005-.1.013-.19.018-.286.011-.266.018-.535.018-.8s-.007-.538-.018-.805c0-.1-.012-.191-.018-.286-.01-.17-.019-.34-.034-.508-.01-.115-.023-.229-.035-.343-.015-.147-.03-.293-.048-.439-.016-.123-.035-.245-.053-.368s-.04-.269-.063-.4-.045-.249-.069-.374-.051-.26-.078-.389-.054-.246-.084-.368-.062-.256-.094-.382-.063-.239-.1-.358-.074-.257-.114-.385c-.035-.113-.069-.225-.105-.336-.045-.136-.092-.271-.14-.406-.035-.1-.07-.2-.107-.3-.058-.153-.117-.3-.179-.454-.031-.078-.062-.156-.094-.233q-.123-.289-.255-.571c-.015-.032-.028-.065-.044-.1a15.1,15.1,0,0,0-7.6-7.549c-.082-.035-.166-.065-.249-.1-.122-.048-.243-.1-.367-.143-.152-.055-.306-.1-.46-.154-.055-.018-.11-.037-.165-.054-.18-.055-.363-.105-.547-.152l-.088-.023c-.2-.049-.4-.093-.6-.133l-.051-.011q-.309-.06-.623-.1l-.1-.014-.234-.033a12.629,12.629,0,0,0-1.426-.082c-7.847,0-14.23,7.334-14.23,16.349S8.095,33.91,15.941,33.91Z" transform="translate(-0.5 0)" fill="#247b7b"/><path d="M12.214,27.833c0-.381-.015-.764-.045-1.138a.606.606,0,1,1,1.207-.1c.032.405.048.82.048,1.233v.013a.6.6,0,0,1-.606.6A.611.611,0,0,1,12.214,27.833Z" transform="translate(14.026 -10.273)" fill="#247b7b"/><path d="M49.734,22.051a.605.605,0,0,1-.587.458A.625.625,0,0,1,49,22.491a.606.606,0,0,1-.44-.735c.1-.4.221-.808.355-1.2a.606.606,0,0,1,1.146.392C49.937,21.308,49.828,21.68,49.734,22.051Z" transform="translate(-44.668 -7.947)" fill="#247b7b"/><path d="M44.551,42.873c.242.3.5.583.761.849a.605.605,0,1,1-.86.853c-.291-.294-.574-.609-.841-.937a.606.606,0,1,1,.94-.764Z" transform="translate(-36.995 -16.824)" fill="#247b7b"/><path d="M13.242,34.369a.606.606,0,0,1,1.175.292c-.1.4-.219.808-.353,1.2a.606.606,0,0,1-.573.411.614.614,0,0,1-.2-.033.606.606,0,0,1-.378-.768C13.04,35.112,13.149,34.741,13.242,34.369Z" transform="translate(12.581 -13.376)" fill="#247b7b"/><path d="M38.87,9a11.374,11.374,0,0,1,1.1-.632.605.605,0,0,1,.546,1.081,10.291,10.291,0,0,0-.982.566A.606.606,0,0,1,38.87,9Z" transform="translate(-29.399 -3.273)" fill="#247b7b"/><path d="M37.783,47.709a10.013,10.013,0,0,0,1.033.458.605.605,0,1,1-.428,1.133,11.181,11.181,0,0,1-1.159-.514.606.606,0,1,1,.553-1.077Z" transform="translate(-26.735 -18.793)" fill="#247b7b"/><path d="M44.819,14.477c.236-.348.489-.687.753-1.007a.606.606,0,0,1,.935.77c-.24.291-.47.6-.684.916a.606.606,0,0,1-1-.679Z" transform="translate(-38.903 -5.226)" fill="#247b7b"/><path d="M50.365,27.968a.623.623,0,0,1,.606.625c0,.371.015.746.043,1.113a.605.605,0,0,1-.557.65l-.047,0a.605.605,0,0,1-.6-.559c-.031-.4-.047-.8-.047-1.207v-.039A.589.589,0,0,1,50.365,27.968Z" transform="translate(-46.327 -11.032)" fill="#247b7b"/><path d="M48.283,35.761a.606.606,0,0,1,.767.381c.122.363.261.723.412,1.071a.606.606,0,0,1-1.111.483c-.165-.38-.317-.773-.45-1.169A.6.6,0,0,1,48.283,35.761Z" transform="translate(-43.681 -14.094)" fill="#247b7b"/><path d="M31.515,6.548a10.759,10.759,0,0,1,1.241-.072h.025a.6.6,0,0,1,.593.606.617.617,0,0,1-.618.606,9.573,9.573,0,0,0-1.1.064.556.556,0,0,1-.071,0,.605.605,0,0,1-.068-1.207Z" transform="translate(-17.315 -2.555)" fill="#247b7b"/><path d="M16.894,41.394a.605.605,0,0,1,1,.677c-.235.348-.487.687-.75,1.008a.606.606,0,1,1-.937-.768C16.45,42.02,16.68,41.711,16.894,41.394Z" transform="translate(7.083 -16.223)" fill="#247b7b"/><path d="M13.793,18.432a.606.606,0,0,1,.8.312c.167.381.319.774.452,1.167A.606.606,0,1,1,13.9,20.3c-.122-.362-.262-.722-.415-1.072A.6.6,0,0,1,13.793,18.432Z" transform="translate(11.611 -7.251)" fill="#247b7b"/><path d="M29.655,49.478a9.518,9.518,0,0,0,1.125-.067.606.606,0,0,1,.144,1.2,10.8,10.8,0,0,1-1.269.075H29.6a.584.584,0,0,1-.579-.606A.63.63,0,0,1,29.655,49.478Z" transform="translate(-14.214 -19.49)" fill="#247b7b"/><path d="M18.264,12.023c.291.294.575.608.842.936a.606.606,0,0,1-.938.767c-.243-.3-.5-.583-.764-.848a.606.606,0,1,1,.859-.854Z" transform="translate(5.142 -4.672)" fill="#247b7b"/><path d="M24.144,7.577a11.254,11.254,0,0,1,1.16.512.606.606,0,1,1-.55,1.079,10.087,10.087,0,0,0-1.034-.456.606.606,0,0,1,.424-1.135Z" transform="translate(-4.942 -2.973)" fill="#247b7b"/><path d="M21.983,47.357a10.337,10.337,0,0,0,.98-.568.606.606,0,1,1,.664,1.013,11.545,11.545,0,0,1-1.1.635.606.606,0,1,1-.549-1.08Z" transform="translate(-2.194 -18.418)" fill="#247b7b"/></svg>