<svg xmlns="http://www.w3.org/2000/svg" width="42.461" height="35.309" viewBox="0 0 42.461 35.309"><g transform="translate(0.001 -43.12)"><g transform="translate(-0.001 43.12)"><path d="M42.245,56.855a2.681,2.681,0,0,0-1.472-1.449l-.746-.3V51.16a2.7,2.7,0,0,0-2.7-2.7h-13.7l-7.856-3.183a.623.623,0,1,0-.468,1.155l5,2.028H7.282l1.291-3.187a1.455,1.455,0,0,1,1.892-.8L13,45.5a.623.623,0,1,0,.468-1.155l-2.53-1.025a2.7,2.7,0,0,0-3.515,1.488L5.937,48.461H5.132a2.7,2.7,0,0,0-2.7,2.7v5.952L.2,62.628a2.7,2.7,0,0,0,1.488,3.515l.746.3v3.943a2.7,2.7,0,0,0,2.7,2.7H7.792a.623.623,0,0,0,0-1.246H5.132a1.454,1.454,0,0,1-1.453-1.453V59.252h8.189A11.921,11.921,0,0,0,7.7,65.187a.623.623,0,0,0,1.2.342,11.129,11.129,0,0,1,4.394-5.776V71.842h-3.01a.623.623,0,1,0,0,1.246h8.546L25.023,75.6a.623.623,0,0,0,.468-1.155L22.15,73.088H35.178l-1.291,3.187a1.455,1.455,0,0,1-1.892.8l-4.188-1.7a.623.623,0,0,0-.468,1.155l4.188,1.7a2.7,2.7,0,0,0,3.515-1.488l1.481-3.655h.805a2.7,2.7,0,0,0,2.7-2.7V64.437l2.235-5.516a2.682,2.682,0,0,0-.016-2.066ZM2.155,64.988a1.453,1.453,0,0,1-.8-1.892l1.079-2.665V65.1Zm5.595-9.3c-.107-.251-.184-.653.379-1.237a1.1,1.1,0,0,1,.967-.383c.754.114,1.748.984,2.8,2.452.366.51.684,1.016.93,1.431C10.438,57.718,8.2,56.76,7.749,55.688Zm5.545.651c-.989-1.486-2.474-3.271-4.012-3.5a2.3,2.3,0,0,0-2.05.751A2.354,2.354,0,0,0,6.6,56.176a4.064,4.064,0,0,0,1.915,1.829H3.679V51.16a1.454,1.454,0,0,1,1.453-1.453h8.162v6.632ZM38.78,70.389a1.454,1.454,0,0,1-1.453,1.453H14.54V59.754a11.128,11.128,0,0,1,4.394,5.776.623.623,0,0,0,1.2-.342,11.921,11.921,0,0,0-4.167-5.936H38.78ZM15.007,57.951c.243-.411.559-.912.921-1.418,1.056-1.475,2.054-2.351,2.81-2.465a1.1,1.1,0,0,1,.967.383c.563.584.486.985.379,1.237C19.629,56.76,17.4,57.718,15.007,57.951Zm23.773.054H19.317a4.065,4.065,0,0,0,1.915-1.829,2.354,2.354,0,0,0-.629-2.589,2.3,2.3,0,0,0-2.05-.751c-1.538.232-3.023,2.017-4.012,3.5V49.707H37.328A1.454,1.454,0,0,1,38.78,51.16v6.845Zm2.326.448-1.079,2.665V56.448l.278.113a1.453,1.453,0,0,1,.8,1.892Z" transform="translate(0.001 -43.12)" fill="#247b7b"/><path d="M365.888,263.857v.6a.623.623,0,1,0,1.246,0v-.581a2.056,2.056,0,0,0,1-.507,2.151,2.151,0,0,0,.65-1.545,1.938,1.938,0,0,0-.432-1.254,2.556,2.556,0,0,0-1.766-.822c-.74-.082-.85-.463-.85-.683a.732.732,0,0,1,.777-.777.82.82,0,0,1,.734.369.624.624,0,0,0,.577.387.632.632,0,0,0,.561-.9,2,2,0,0,0-1.249-1.016v-.61a.623.623,0,1,0-1.246,0v.608a1.838,1.838,0,0,0-1.026.736,2.224,2.224,0,0,0-.374,1.2,1.961,1.961,0,0,0,1.96,1.922c1.088.12,1.088.641,1.088.837a.9.9,0,0,1-.257.638,1.08,1.08,0,0,1-.831.222,1,1,0,0,1-.982-.593h0a.624.624,0,1,0-1.19.368A2.152,2.152,0,0,0,365.888,263.857Z" transform="translate(-334.029 -238.247)" fill="#247b7b"/></g></g></svg>