<svg id="voucher" xmlns="http://www.w3.org/2000/svg" width="29.666" height="17.685" viewBox="0 0 29.666 17.685">
  <g id="Group_2514" data-name="Group 2514">
    <g id="Group_2513" data-name="Group 2513">
      <path id="Path_2082" data-name="Path 2082" d="M28.81,109.66a.856.856,0,0,0,.856-.856v-4.564a.856.856,0,0,0-.856-.856H.856a.856.856,0,0,0-.856.856V108.8a.856.856,0,0,0,.856.856,2.567,2.567,0,1,1,0,5.134.856.856,0,0,0-.856.856v4.564a.856.856,0,0,0,.856.856H28.81a.856.856,0,0,0,.856-.856v-4.564a.856.856,0,0,0-.856-.856,2.567,2.567,0,1,1,0-5.134Zm-.856,6.76v2.938H9.984v-2.567a.856.856,0,0,0-1.711,0v2.567H1.711V116.42a4.279,4.279,0,0,0,0-8.385V105.1H8.272v2.567a.856.856,0,1,0,1.711,0V105.1H27.954v2.938a4.279,4.279,0,0,0,0,8.385Z" transform="translate(0 -103.385)"/>
    </g>
  </g>
  <g id="Group_2516" data-name="Group 2516" transform="translate(8.272 6.846)">
    <g id="Group_2515" data-name="Group 2515">
      <path id="Path_2083" data-name="Path 2083" d="M143.625,221.538a.856.856,0,0,0-.856.856v2.282a.856.856,0,1,0,1.711,0v-2.282A.856.856,0,0,0,143.625,221.538Z" transform="translate(-142.769 -221.538)"/>
    </g>
  </g>
</svg>
