<svg xmlns="http://www.w3.org/2000/svg" width="32.525" height="32.511" viewBox="0 0 32.525 32.511">
  <g id="location" transform="translate(-4.05 -4.059)">
    <path id="Path_2140" data-name="Path 2140" d="M57.057,26.162A3.917,3.917,0,1,0,53.14,30.08a3.917,3.917,0,0,0,3.917-3.917Zm-6.906,0a2.989,2.989,0,1,1,2.989,2.99A2.989,2.989,0,0,1,50.151,26.162Z" transform="translate(-32.827 -12.999)" fill="#f6f6f6" stroke="#f6f6f6" stroke-width="1"/>
    <path id="Path_2141" data-name="Path 2141" d="M36.038,35.442l-3.781-9.913a.464.464,0,0,0-.433-.3H24.666l.131-.212c2.754-4.559,4.139-8.547,4.12-11.852a8.6,8.6,0,1,0-17.21,0c-.02,3.306,1.366,7.295,4.12,11.853.044.072.087.142.131.212H8.8a.464.464,0,0,0-.433.3L4.587,35.442a.463.463,0,0,0,.433.629H35.6a.463.463,0,0,0,.433-.629Zm-23.4-22.278a7.677,7.677,0,0,1,15.354,0c.04,6.59-6.12,14.717-7.677,16.665-1.557-1.948-7.717-10.072-7.677-16.667Zm7.324,17.7a.464.464,0,0,0,.707,0,49.226,49.226,0,0,0,3.419-4.707H31.5l.594,1.557L17.6,32.87l-5.167-6.714h4.106a49.227,49.227,0,0,0,3.42,4.708Zm-2.375,3h0l8.648-3.075,3.354,4.358H13.977Zm-8.463-7.7h2.142L16.681,33.2l-5.472,1.946H5.693Zm21.64,8.987-3.607-4.687,5.275-1.876,2.5,6.563Z" fill="#f6f6f6" stroke="#f6f6f6" stroke-width="1"/>
  </g>
</svg>
