<svg xmlns="http://www.w3.org/2000/svg" width="39.511" height="39.5" viewBox="0 0 39.511 39.5">
  <g id="location_1_" data-name="location (1)" transform="translate(-4.301 -4.31)">
    <g id="Group_2673" data-name="Group 2673">
      <path id="Path_2343" data-name="Path 2343" d="M58.593,26.931a4.685,4.685,0,1,0-4.685,4.686A4.685,4.685,0,0,0,58.593,26.931Zm-8.261,0a3.575,3.575,0,1,1,3.576,3.576A3.575,3.575,0,0,1,50.333,26.931Z" transform="translate(-29.852 -12.079)" fill="#247b7b" stroke="#247b7b" stroke-width="0.5"/>
      <path id="Path_2344" data-name="Path 2344" d="M43.518,42.781l-4.68-12.269a.574.574,0,0,0-.536-.369H29.445l.162-.262c3.408-5.642,5.123-10.578,5.1-14.669a10.649,10.649,0,1,0-21.3,0c-.025,4.092,1.69,9.028,5.1,14.67.054.09.108.175.162.262H9.81a.574.574,0,0,0-.536.369L4.594,42.781a.573.573,0,0,0,.536.779H42.982a.573.573,0,0,0,.536-.779ZM14.555,15.209a9.5,9.5,0,0,1,19,0c.049,8.156-7.574,18.214-9.5,20.626-1.927-2.411-9.551-12.466-9.5-20.628Zm9.064,21.907a.574.574,0,0,0,.875,0,60.925,60.925,0,0,0,4.232-5.826h9.181l.735,1.927L20.7,39.6l-6.395-8.309h5.081a60.925,60.925,0,0,0,4.232,5.827ZM20.68,40.823h0l10.7-3.805,4.151,5.394H16.216ZM10.206,31.289h2.651L19.562,40,12.79,42.411H5.964ZM36.988,42.411l-4.464-5.8,6.528-2.322,3.1,8.122Z" fill="#247b7b" stroke="#247b7b" stroke-width="0.5"/>
    </g>
  </g>
</svg>
