<svg id="coin" xmlns="http://www.w3.org/2000/svg" width="29.666" height="25.031" viewBox="0 0 29.666 25.031">
  <path id="Path_2075" data-name="Path 2075" d="M25.143,42.576A20.322,20.322,0,0,0,14.833,40a20.321,20.321,0,0,0-10.31,2.576C1.606,44.326,0,46.7,0,49.271V55.76c0,2.567,1.606,4.945,4.523,6.695a20.321,20.321,0,0,0,10.31,2.576,20.322,20.322,0,0,0,10.31-2.576c2.917-1.75,4.523-4.128,4.523-6.695V49.271C29.666,46.7,28.06,44.326,25.143,42.576ZM5.477,44.166a18.456,18.456,0,0,1,9.356-2.312,18.456,18.456,0,0,1,9.356,2.312c2.336,1.4,3.623,3.215,3.623,5.1s-1.287,3.7-3.623,5.1a18.456,18.456,0,0,1-9.356,2.312,18.456,18.456,0,0,1-9.356-2.312c-2.336-1.4-3.623-3.215-3.623-5.1S3.141,45.567,5.477,44.166ZM22.249,57.319v4.507a18.032,18.032,0,0,1-3.708,1.04V58.254A20.582,20.582,0,0,0,22.249,57.319Zm-11.125.935v4.611a18.033,18.033,0,0,1-3.708-1.04V57.319A20.571,20.571,0,0,0,11.125,58.254ZM1.854,55.76V53.8a11.385,11.385,0,0,0,2.669,2.162q.5.3,1.039.568v4.382l-.085-.05c-2.336-1.4-3.623-3.215-3.623-5.1ZM12.979,63.1V58.47q.916.07,1.854.071t1.854-.071V63.1q-.913.076-1.854.076T12.979,63.1Zm14.833-7.34c0,1.89-1.287,3.7-3.623,5.1l-.085.05V56.533q.538-.267,1.039-.568A11.388,11.388,0,0,0,27.812,53.8V55.76Z" transform="translate(0 -40)"/>
</svg>
