<svg id="information" xmlns="http://www.w3.org/2000/svg" width="29.666" height="29.666" viewBox="0 0 29.666 29.666">
  <g id="Group_2508" data-name="Group 2508" transform="translate(0)">
    <g id="Group_2507" data-name="Group 2507">
      <ellipse id="Ellipse_282" data-name="Ellipse 282" cx="1.449" cy="1.449" rx="1.449" ry="1.449" transform="translate(13.384 20.482)"/>
      <path id="Path_2078" data-name="Path 2078" d="M14.833,0A14.833,14.833,0,1,0,29.666,14.833,14.825,14.825,0,0,0,14.833,0Zm0,27.348A12.515,12.515,0,1,1,27.348,14.833,12.508,12.508,0,0,1,14.833,27.348Z"/>
      <path id="Path_2079" data-name="Path 2079" d="M180.635,128.5A4.641,4.641,0,0,0,176,133.135a1.159,1.159,0,1,0,2.318,0,2.318,2.318,0,1,1,2.318,2.318,1.159,1.159,0,0,0-1.159,1.159v2.9a1.159,1.159,0,0,0,2.318,0v-1.885a4.636,4.636,0,0,0-1.159-9.124Z" transform="translate(-165.802 -121.055)"/>
    </g>
  </g>
</svg>
