<svg id="logout" xmlns="http://www.w3.org/2000/svg" width="29.666" height="29.567" viewBox="0 0 29.666 29.567">
  <g id="Group_2510" data-name="Group 2510" transform="translate(13.65)">
    <g id="Group_2509" data-name="Group 2509">
      <path id="Path_2080" data-name="Path 2080" d="M1.232,27.953H12.32a1.232,1.232,0,0,0,1.232-1.232V4.546A1.232,1.232,0,0,0,12.32,3.314H1.232a1.232,1.232,0,0,1,0-2.464H12.32a3.7,3.7,0,0,1,3.7,3.7V26.721a3.7,3.7,0,0,1-3.7,3.7H1.232a1.232,1.232,0,1,1,0-2.464Z" transform="translate(0 -0.85)"/>
    </g>
  </g>
  <g id="Group_2512" data-name="Group 2512" transform="translate(0 6.16)">
    <g id="Group_2511" data-name="Group 2511">
      <path id="Path_2081" data-name="Path 2081" d="M170.467,114.911l7.49-7.392a1.232,1.232,0,1,1,1.73,1.754l-5.353,5.283h14.344a1.232,1.232,0,0,1,0,2.464H174.334l5.353,5.283a1.232,1.232,0,1,1-1.73,1.754l-7.49-7.392a1.231,1.231,0,0,1,0-1.754Z" transform="translate(-170.1 -107.165)"/>
    </g>
  </g>
</svg>
