<svg xmlns="http://www.w3.org/2000/svg" width="41.104" height="49.909" viewBox="0 0 41.104 49.909"><g transform="matrix(0.616, -0.788, 0.788, 0.616, -3.585, 27.984)"><g transform="translate(0 11.72)"><path d="M21.682,72.123h-.645a.577.577,0,0,1-.543-.379c-.071-.188-.148-.371-.231-.553a.578.578,0,0,1,.117-.654l.459-.46a1.762,1.762,0,0,0,0-2.484l-1.656-1.656a1.762,1.762,0,0,0-2.485,0l-.459.459a.58.58,0,0,1-.654.117c-.182-.083-.365-.159-.553-.234a.576.576,0,0,1-.38-.544v-.645a1.758,1.758,0,0,0-1.758-1.758H10.548A1.758,1.758,0,0,0,8.79,65.091v.645a.577.577,0,0,1-.379.543c-.188.071-.371.148-.553.231a.579.579,0,0,1-.654-.117l-.46-.459a1.762,1.762,0,0,0-2.484,0L2.6,67.594a1.762,1.762,0,0,0,0,2.485l.459.459a.578.578,0,0,1,.117.654c-.083.182-.159.365-.231.553a.576.576,0,0,1-.547.378H1.758A1.758,1.758,0,0,0,0,73.881v2.344a1.758,1.758,0,0,0,1.758,1.758H2.4a.577.577,0,0,1,.543.379c.071.188.148.371.231.553a.578.578,0,0,1-.117.654l-.459.46a1.762,1.762,0,0,0,0,2.484l1.656,1.656a1.762,1.762,0,0,0,2.485,0L7.2,83.71a.58.58,0,0,1,.654-.117c.182.083.365.159.553.234a.576.576,0,0,1,.383.544v.645a1.758,1.758,0,0,0,1.758,1.758h2.344a1.758,1.758,0,0,0,1.758-1.758v-.645a.577.577,0,0,1,.379-.543c.188-.072.371-.148.553-.231a.579.579,0,0,1,.654.117l.46.459a1.763,1.763,0,0,0,2.484,0l1.656-1.656a1.762,1.762,0,0,0,0-2.485l-.459-.459a.578.578,0,0,1-.117-.654c.083-.182.159-.365.234-.553a.576.576,0,0,1,.544-.38h.645a1.758,1.758,0,0,0,1.758-1.758V73.881A1.758,1.758,0,0,0,21.682,72.123Zm.586,4.1a.586.586,0,0,1-.586.586h-.645A1.764,1.764,0,0,0,19.4,77.945q-.093.246-.2.485a1.763,1.763,0,0,0,.352,1.967l.458.459a.586.586,0,0,1,0,.829h0L18.349,83.34a.586.586,0,0,1-.829,0l-.459-.459a1.762,1.762,0,0,0-1.967-.352c-.159.072-.321.139-.483.2a1.763,1.763,0,0,0-1.133,1.64v.645a.586.586,0,0,1-.586.586H10.548a.586.586,0,0,1-.586-.586v-.645A1.764,1.764,0,0,0,8.829,82.73q-.246-.093-.485-.2a1.764,1.764,0,0,0-1.967.352l-.459.458a.586.586,0,0,1-.829,0h0L3.433,81.684a.586.586,0,0,1,0-.829l.459-.459a1.763,1.763,0,0,0,.352-1.967c-.072-.159-.139-.321-.2-.483A1.763,1.763,0,0,0,2.4,76.811H1.758a.586.586,0,0,1-.586-.586V73.881a.586.586,0,0,1,.586-.586H2.4a1.764,1.764,0,0,0,1.641-1.133q.093-.246.2-.485a1.763,1.763,0,0,0-.352-1.967l-.461-.459a.586.586,0,0,1,0-.829h0l1.656-1.656a.586.586,0,0,1,.829,0l.459.459a1.762,1.762,0,0,0,1.967.352c.159-.072.321-.139.483-.2a1.763,1.763,0,0,0,1.135-1.64v-.645a.586.586,0,0,1,.586-.586h2.344a.586.586,0,0,1,.586.586v.645a1.764,1.764,0,0,0,1.133,1.641q.246.093.485.2a1.762,1.762,0,0,0,1.967-.352l.459-.458a.59.59,0,0,1,.829,0l1.656,1.656a.586.586,0,0,1,0,.829l-.459.459a1.763,1.763,0,0,0-.352,1.967c.072.159.139.321.2.483a1.763,1.763,0,0,0,1.64,1.133h.645a.586.586,0,0,1,.586.586v2.344Z" transform="translate(0 -63.333)" fill="#247b7b" stroke="#247b7b" stroke-width="0.396"/></g><g transform="translate(6.443 18.166)"><path d="M45.356,103.206c-.006-.141-.016-.281-.033-.42s-.041-.3-.072-.445c-.021-.1-.047-.19-.073-.285q-.049-.181-.111-.357c-.029-.081-.059-.162-.089-.243a5.22,5.22,0,0,0-.258-.549c-.008-.013-.012-.028-.02-.042a5.2,5.2,0,0,0-.527-.768c-.017-.021-.036-.041-.054-.062-.081-.1-.164-.188-.251-.277-.046-.047-.094-.092-.142-.138s-.117-.108-.176-.16-.144-.122-.217-.179l-.1-.071a5.237,5.237,0,0,0-3.142-1.045c-.059,0-.117.009-.176.011-.125,0-.25.011-.376.023-.066.007-.133.015-.2.024a5.371,5.371,0,0,0-.568.106,5.277,5.277,0,0,0,0,10.219.134.134,0,0,1,.029.005,5.589,5.589,0,0,0,.614.117c.137.017.273.021.41.027.091,0,.176.018.271.018.167,0,.34-.011.517-.029a.574.574,0,0,0,.059-.008c.142-.016.287-.037.434-.066.059-.011.113-.026.169-.039.1-.024.206-.049.311-.08.082-.025.162-.053.242-.081s.163-.059.247-.09.153-.068.229-.1c.1-.045.2-.09.293-.142h0a6.936,6.936,0,0,0,1.5-1.085,1.845,1.845,0,0,0,.314-.384,6.256,6.256,0,0,0,.883-2.408c.016-.113.031-.226.04-.342s.014-.212.016-.317c0-.033,0-.065,0-.1C45.368,103.362,45.36,103.286,45.356,103.206Zm-1.168.384c0,.049,0,.1-.007.145-.011.142-.029.284-.053.426a4.111,4.111,0,0,1-2.059,2.871c-.073.038-.144.074-.216.107l-.049.023a4.233,4.233,0,0,1-1.069.323l-.079.012c-.073.011-.145.019-.217.026-.094.008-.189.013-.286.015h-.122a4.113,4.113,0,0,1-.415-.026l-.07-.008a4.339,4.339,0,0,1-.479-.09,4.1,4.1,0,0,1,0-7.947h0a4.243,4.243,0,0,1,1.03-.129,4.05,4.05,0,0,1,.5.034c.045.005.088.013.132.02.127.02.252.045.376.077l.121.031a4.139,4.139,0,0,1,.894.376c.045.026.089.054.134.081.093.059.182.117.271.184.047.035.1.069.141.105a4.23,4.23,0,0,1,.33.293c.042.042.08.088.12.132.067.073.133.148.2.227.043.055.085.111.126.168.059.084.117.172.17.261l.088.146a4.02,4.02,0,0,1,.2.43c.023.059.043.117.064.176.038.108.071.217.1.327.015.059.031.111.043.168a4.13,4.13,0,0,1,.074.48c0,.043,0,.086.006.129C44.191,103.319,44.194,103.454,44.188,103.59Z" transform="translate(-34.817 -98.167)" fill="#247b7b" stroke="#247b7b" stroke-width="0.396"/></g><g transform="translate(6.392)"><path d="M61.551,12.306H59.708a.572.572,0,0,1-.546-.384,12.206,12.206,0,0,0-.658-1.589.574.574,0,0,1,.113-.662l1.307-1.309a1.758,1.758,0,0,0,0-2.485L57.432,3.39a1.758,1.758,0,0,0-2.485,0L53.64,4.7a.574.574,0,0,1-.661.113,12.174,12.174,0,0,0-1.589-.662A.572.572,0,0,1,51,3.6V1.758A1.758,1.758,0,0,0,49.245,0H45.729a1.758,1.758,0,0,0-1.758,1.758V3.6a.572.572,0,0,1-.384.546A12.213,12.213,0,0,0,42,4.808a.573.573,0,0,1-.662-.113L40.028,3.389a1.762,1.762,0,0,0-2.485,0L35.056,5.876a1.758,1.758,0,0,0,0,2.486l1.922,1.925a.586.586,0,0,0,.83-.827L35.884,7.535a.586.586,0,0,1,0-.829l2.487-2.487a.586.586,0,0,1,.829,0l1.309,1.307a1.742,1.742,0,0,0,2.014.331,11.087,11.087,0,0,1,1.436-.6A1.743,1.743,0,0,0,45.143,3.6V1.758a.586.586,0,0,1,.586-.586h3.516a.586.586,0,0,1,.586.586V3.6a1.743,1.743,0,0,0,1.184,1.658,11.052,11.052,0,0,1,1.437.6,1.746,1.746,0,0,0,2.013-.331l1.309-1.306a.586.586,0,0,1,.829,0L59.09,6.707a.586.586,0,0,1,0,.828L57.783,8.844a1.744,1.744,0,0,0-.331,2.014,11.087,11.087,0,0,1,.6,1.436,1.743,1.743,0,0,0,1.658,1.184h1.843a.586.586,0,0,1,.586.586V17.58a.586.586,0,0,1-.586.586H59.708A1.743,1.743,0,0,0,58.05,19.35a11.042,11.042,0,0,1-.6,1.437,1.745,1.745,0,0,0,.331,2.013l1.307,1.309a.586.586,0,0,1,0,.829L56.6,27.425a.586.586,0,0,1-.828,0L53.849,25.5a.586.586,0,1,0-.842.815l.014.014,1.925,1.922a1.758,1.758,0,0,0,2.485,0l2.487-2.486a1.758,1.758,0,0,0,0-2.486l-1.305-1.307a.574.574,0,0,1-.113-.661,12.174,12.174,0,0,0,.662-1.589.572.572,0,0,1,.546-.387h1.843a1.758,1.758,0,0,0,1.758-1.758V14.064A1.758,1.758,0,0,0,61.551,12.306Z" transform="translate(-34.541)" fill="#247b7b" stroke="#247b7b" stroke-width="0.396"/></g><g transform="translate(13.787 8.208)"><path d="M85.441,46.581a7.626,7.626,0,0,0-10.773,0,.586.586,0,0,0,.829.829,6.446,6.446,0,0,1,9.177,9.055l-.061.061a.586.586,0,1,0,.814.843l.014-.014A7.626,7.626,0,0,0,85.441,46.581Z" transform="translate(-74.503 -44.353)" fill="#247b7b" stroke="#247b7b" stroke-width="0.396"/></g></g></svg>