<svg xmlns="http://www.w3.org/2000/svg" width="456" height="25" viewBox="0 0 456 25"><g transform="translate(14 -801)"><path d="M11.04,5.966a4,4,0,0,1,6.92,0l7.556,13.027A4,4,0,0,1,22.056,25H6.944a4,4,0,0,1-3.46-6.007Z" transform="translate(15 826) rotate(180)" fill="#f0f0f0"/><path d="M11.04,5.966a4,4,0,0,1,6.92,0l7.556,13.027A4,4,0,0,1,22.056,25H6.944a4,4,0,0,1-3.46-6.007Z" transform="translate(38 826) rotate(180)" fill="#f0f0f0"/><path d="M11.04,5.966a4,4,0,0,1,6.92,0l7.556,13.027A4,4,0,0,1,22.056,25H6.944a4,4,0,0,1-3.46-6.007Z" transform="translate(60 826) rotate(180)" fill="#f0f0f0"/><path d="M11.04,5.966a4,4,0,0,1,6.92,0l7.556,13.027A4,4,0,0,1,22.056,25H6.944a4,4,0,0,1-3.46-6.007Z" transform="translate(83 826) rotate(180)" fill="#f0f0f0"/><path d="M11.04,5.966a4,4,0,0,1,6.92,0l7.556,13.027A4,4,0,0,1,22.056,25H6.944a4,4,0,0,1-3.46-6.007Z" transform="translate(105 826) rotate(180)" fill="#f0f0f0"/><path d="M11.04,5.966a4,4,0,0,1,6.92,0l7.556,13.027A4,4,0,0,1,22.056,25H6.944a4,4,0,0,1-3.46-6.007Z" transform="translate(128 826) rotate(180)" fill="#f0f0f0"/><path d="M11.04,5.966a4,4,0,0,1,6.92,0l7.556,13.027A4,4,0,0,1,22.056,25H6.944a4,4,0,0,1-3.46-6.007Z" transform="translate(150 826) rotate(180)" fill="#f0f0f0"/><path d="M11.04,5.966a4,4,0,0,1,6.92,0l7.556,13.027A4,4,0,0,1,22.056,25H6.944a4,4,0,0,1-3.46-6.007Z" transform="translate(173 826) rotate(180)" fill="#f0f0f0"/><path d="M11.04,5.966a4,4,0,0,1,6.92,0l7.556,13.027A4,4,0,0,1,22.056,25H6.944a4,4,0,0,1-3.46-6.007Z" transform="translate(195 826) rotate(180)" fill="#f0f0f0"/><path d="M11.04,5.966a4,4,0,0,1,6.92,0l7.556,13.027A4,4,0,0,1,22.056,25H6.944a4,4,0,0,1-3.46-6.007Z" transform="translate(218 826) rotate(180)" fill="#f0f0f0"/><path d="M11.04,5.966a4,4,0,0,1,6.92,0l7.556,13.027A4,4,0,0,1,22.056,25H6.944a4,4,0,0,1-3.46-6.007Z" transform="translate(263 826) rotate(180)" fill="#f0f0f0"/><path d="M11.04,5.966a4,4,0,0,1,6.92,0l7.556,13.027A4,4,0,0,1,22.056,25H6.944a4,4,0,0,1-3.46-6.007Z" transform="translate(240 826) rotate(180)" fill="#f0f0f0"/><path d="M11.04,5.966a4,4,0,0,1,6.92,0l7.556,13.027A4,4,0,0,1,22.056,25H6.944a4,4,0,0,1-3.46-6.007Z" transform="translate(308 826) rotate(180)" fill="#f0f0f0"/><path d="M11.04,5.966a4,4,0,0,1,6.92,0l7.556,13.027A4,4,0,0,1,22.056,25H6.944a4,4,0,0,1-3.46-6.007Z" transform="translate(285 826) rotate(180)" fill="#f0f0f0"/><path d="M11.04,5.966a4,4,0,0,1,6.92,0l7.556,13.027A4,4,0,0,1,22.056,25H6.944a4,4,0,0,1-3.46-6.007Z" transform="translate(330 826) rotate(180)" fill="#f0f0f0"/><path d="M11.04,5.966a4,4,0,0,1,6.92,0l7.556,13.027A4,4,0,0,1,22.056,25H6.944a4,4,0,0,1-3.46-6.007Z" transform="translate(353 826) rotate(180)" fill="#f0f0f0"/><path d="M11.04,5.966a4,4,0,0,1,6.92,0l7.556,13.027A4,4,0,0,1,22.056,25H6.944a4,4,0,0,1-3.46-6.007Z" transform="translate(375 826) rotate(180)" fill="#f0f0f0"/><path d="M11.04,5.966a4,4,0,0,1,6.92,0l7.556,13.027A4,4,0,0,1,22.056,25H6.944a4,4,0,0,1-3.46-6.007Z" transform="translate(420 826) rotate(180)" fill="#f0f0f0"/><path d="M11.04,5.966a4,4,0,0,1,6.92,0l7.556,13.027A4,4,0,0,1,22.056,25H6.944a4,4,0,0,1-3.46-6.007Z" transform="translate(442 826) rotate(180)" fill="#f0f0f0"/><path d="M11.04,5.966a4,4,0,0,1,6.92,0l7.556,13.027A4,4,0,0,1,22.056,25H6.944a4,4,0,0,1-3.46-6.007Z" transform="translate(398 826) rotate(180)" fill="#f0f0f0"/></g></svg>