<?xml version="1.0" standalone="no"?>
<!DOCTYPE svg PUBLIC "-//W3C//DTD SVG 20010904//EN"
 "http://www.w3.org/TR/2001/REC-SVG-20010904/DTD/svg10.dtd">
<svg version="1.0" xmlns="http://www.w3.org/2000/svg"
 width="500.000000pt" height="500.000000pt" viewBox="0 0 500.000000 500.000000"
 preserveAspectRatio="xMidYMid meet">
<metadata>
Created by potrace 1.11, written by Peter Selinger 2001-2013
</metadata>
<g transform="translate(0.000000,500.000000) scale(0.100000,-0.100000)"
fill="#000000" stroke="none">
<path d="M545 4988 c-170 -12 -305 -81 -407 -208 -59 -73 -82 -116 -109 -197
l-22 -68 -2 -2000 c-1 -1607 1 -2014 12 -2070 31 -167 151 -324 307 -401 l80
-39 2090 -3 2091 -2 58 20 c131 48 250 157 315 290 l37 75 0 2101 0 2100 -39
80 c-77 156 -239 283 -401 314 -66 13 -3843 21 -4010 8z"/>
</g>
</svg>
